<svg id="Layer_1" data-name="Layer 1" xmlns="http://www.w3.org/2000/svg" viewBox="0 0 128 128"><defs><style>.cls-1,.cls-2{fill:#2171b0;}.cls-2,.cls-5{font-size:8px;}.cls-2,.cls-5,.cls-6{font-family:Poppins-Medium, Poppins;font-weight:500;}.cls-3,.cls-5,.cls-6{fill:#fff;}.cls-3,.cls-4{isolation:isolate;}.cls-3{opacity:0.11;}.cls-4{fill:#f5f8fc;opacity:0.04;}.cls-6{font-size:7px;}.cls-7{fill:#415a6b;}.cls-8{fill:#ed6055;}.cls-9{fill:#abd48a;}.cls-10{fill:#1494cd;}.cls-11{fill:#2277a0;}.cls-12{fill:#3a4b59;}.cls-13{fill:#b65048;}.cls-14{fill:#86a56e;}.cls-15{fill:#e7e7e7;}.cls-16{fill:#49606c;}</style></defs><rect class="cls-1" x="-5.24" y="-5.24" width="138.47" height="138.47"/><text class="cls-2" transform="translate(30.59 120.58) scale(0.98 1)">Zoho CRM Addon</text><rect class="cls-3" x="42.13" y="92.55" width="3.2" height="3.2" transform="translate(-53.76 58.5) rotate(-45)"/><path class="cls-4" d="M-9.93,38.61c9.11,1.88,14.44-21,28-22,11.58-.85,14.39,15.38,29,17s18.18-13.59,35-14c14.88-.36,17.2,11.4,36,14,12,1.65,30.53-.42,36-11,6.23-12.06-5.72-32.93-21-43-8-5.3-15.57-6.67-80,0-33.79,3.5-45.15,5.27-56,15-2.35,2.1-18.14,16.27-15,32C-17.75,27.5-15.66,37.43-9.93,38.61Z"/><text class="cls-5" transform="translate(13.4 105.5) scale(0.98 1)">WP Leads Builder For CRM</text><text class="cls-6" transform="translate(34.37 119.69) scale(0.98 1)">Zoho CRM Addon</text><path class="cls-7" d="M98.88,70.55c3.28,1.06,4.63,2.91,4.63,6.34,0,2.15,0,4.29,0,6.44a5.84,5.84,0,0,1-5.81,6c-3.81.07-7.63,0-11.45,0A10.61,10.61,0,0,0,88.41,83c0-4.19,0-8.38,0-12.57A81.76,81.76,0,0,1,98.88,70.55Z"/><path class="cls-8" d="M85.9,14c3.95,0,7.9-.12,11.84,0A5.8,5.8,0,0,1,103.51,20c0,2.16,0,4.31,0,6.47,0,3.44-1.57,5.44-4.92,6.28l-10.24-.13c0-3.95,0-7.89.06-11.84C88.43,18.18,87.92,15.79,85.9,14Z"/><path class="cls-9" d="M98.88,70.55a81.76,81.76,0,0,0-10.5-.09v-.12q0-9.33,0-18.65v-.1H99.08c3.45,1.41,4.82,4,4.45,7.67a17.14,17.14,0,0,0,0,3.58C104,66.62,102.38,69.15,98.88,70.55Z"/><path class="cls-10" d="M99.08,51.58H88.41c0-5.57.06-11.14,0-16.7,0-1.64.5-2,2-2C93.21,33,96,33,98.84,33a5.72,5.72,0,0,1,4.67,5.86c0,2-.1,3.94,0,5.89A6.26,6.26,0,0,1,99.08,51.58Z"/><path class="cls-11" d="M98.84,33c-2.81,0-5.63.07-8.44-.05-1.54-.06-2.07.34-2,2,.11,5.56,0,11.13,0,16.7v.1l-2.09-.07q0-9.46,0-18.93l2-.08,10.24.13A.59.59,0,0,1,98.84,33Z"/><path class="cls-12" d="M88.38,70.46c0,4.19,0,8.38,0,12.57a10.61,10.61,0,0,1-2.16,6.26h-2.4a7.58,7.58,0,0,0,2.43-6.07c0-4.29,0-8.58,0-12.88h2Z"/><path class="cls-13" d="M88.35,32.61l-2,.08c0-4.22-.1-8.45,0-12.67A7.63,7.63,0,0,0,83.85,14H85.9c2,1.83,2.53,4.22,2.51,6.81C88.37,24.72,88.37,28.66,88.35,32.61Z"/><path class="cls-14" d="M88.38,70.34h-2q0-9.36,0-18.73l2.09.07Q88.39,61,88.38,70.34Z"/><path class="cls-15" d="M86.33,70.35q0-9.36,0-18.73t0-18.93c0-4.22-.1-8.45,0-12.67A7.63,7.63,0,0,0,83.85,14a8.38,8.38,0,0,0-4.77-1.16c-16.11.05-32.21,0-48.31,0-3.9,0-6.31,2.45-6.31,6.4,0,21.54.05,43.09-.06,64.64A6.56,6.56,0,0,0,31,90.51c16-.16,32.08-.09,48.12,0a8.36,8.36,0,0,0,4.78-1.17,7.58,7.58,0,0,0,2.43-6.07C86.23,78.94,86.31,74.65,86.33,70.35Z"/><path class="cls-16" d="M54.25,71.14a9.67,9.67,0,1,1,3.07-19h0a1.4,1.4,0,0,1-1.5,1,7.46,7.46,0,0,0-1,0,8.39,8.39,0,1,0,8.31,9.59,1.39,1.39,0,0,1,1.36-1.2h0A9.68,9.68,0,0,1,54.25,71.14Z"/><path class="cls-16" d="M54.88,71.48l-.65,0a10,10,0,0,1-9.32-9.33,9.88,9.88,0,0,1,2.69-7.47,10,10,0,0,1,7.27-3.15,10.2,10.2,0,0,1,2.53.32l.3.08-.08.31a1.68,1.68,0,0,1-1.84,1.24,9.08,9.08,0,0,0-.91-.05,8.12,8.12,0,0,0-6,2.7,8.08,8.08,0,1,0,14,6.54,1.68,1.68,0,0,1,1.67-1.48h.32v.32a10,10,0,0,1-3.16,7.28A9.87,9.87,0,0,1,54.88,71.48Zm0-19.34a9.38,9.38,0,0,0-6.81,3,9.34,9.34,0,0,0,6.21,15.72h0a9.34,9.34,0,0,0,9.94-9,1.07,1.07,0,0,0-.71.88,8.71,8.71,0,1,1-8.63-10c.33,0,.66,0,1,0a1.06,1.06,0,0,0,1-.47A9.67,9.67,0,0,0,54.87,52.14Z"/><polygon class="cls-16" points="54.07 64.61 49.77 60.3 50.66 59.4 54.07 62.81 62.51 54.38 63.41 55.28 54.07 64.61"/><path class="cls-16" d="M54.07,65.06,49.32,60.3,50.66,59l3.41,3.41,8.44-8.43,1.35,1.35ZM50.21,60.3l3.86,3.86L63,55.28l-.45-.45-8.44,8.43-3.41-3.41Z"/><path class="cls-16" d="M50.63,36.51a4.38,4.38,0,1,0-6,4.08H41.75a2.48,2.48,0,0,0-2.48,2.48v8.25a2.48,2.48,0,0,0,1.84,2.4v11.2h3.36a1.27,1.27,0,0,0-1.27-1.27h-.82V53.08a.55.55,0,0,0-.55-.55h-.08a1.21,1.21,0,0,1-1.21-1.21V43.07a1.21,1.21,0,0,1,1.21-1.21h4V54.38A1.27,1.27,0,0,0,47,53.11V40.81A4.37,4.37,0,0,0,50.63,36.51Zm-4.37,3.11a3.11,3.11,0,1,1,3.1-3.11A3.12,3.12,0,0,1,46.26,39.62Z"/><path class="cls-16" d="M44.78,65.23h-4V54A2.81,2.81,0,0,1,39,51.32V43.07a2.8,2.8,0,0,1,2.8-2.8h1.71a4.69,4.69,0,1,1,3.9.8v12a1.59,1.59,0,0,1-1.59,1.59h-.31V42.17H41.75a.89.89,0,0,0-.89.9v8.25a.89.89,0,0,0,.89.89h.08a.87.87,0,0,1,.87.87V63.33h.5a1.59,1.59,0,0,1,1.58,1.59Zm-3.35-.63h2.66A1,1,0,0,0,43.2,64H42.06V53.08a.23.23,0,0,0-.23-.23h-.08a1.54,1.54,0,0,1-1.53-1.53V43.07a1.53,1.53,0,0,1,1.53-1.53h4.34V54a1,1,0,0,0,.64-.9V40.55l.26,0a4.06,4.06,0,1,0-2.2-.21l1.58.61H41.75a2.17,2.17,0,0,0-2.17,2.17v8.25a2.17,2.17,0,0,0,1.61,2.09l.24.06Zm4.83-24.67a3.42,3.42,0,1,1,3.42-3.42A3.42,3.42,0,0,1,46.26,39.93Zm0-6.2A2.79,2.79,0,1,0,49,36.51,2.79,2.79,0,0,0,46.26,33.73Z"/><path class="cls-16" d="M63.69,40.81v12.3A1.27,1.27,0,0,0,65,54.38V41.86h4a1.21,1.21,0,0,1,1.2,1.21v8.25A1.21,1.21,0,0,1,69,52.53h-.08a.56.56,0,0,0-.56.55V63.65h-.81a1.27,1.27,0,0,0-1.27,1.27h3.35V53.72a2.49,2.49,0,0,0,1.85-2.4V43.07A2.49,2.49,0,0,0,69,40.59H66.05a4.38,4.38,0,1,0-2.36.22Zm-2.32-4.3a3.11,3.11,0,1,1,3.1,3.11A3.1,3.1,0,0,1,61.37,36.51Z"/><path class="cls-16" d="M69.94,65.23H66v-.31a1.59,1.59,0,0,1,1.59-1.59H68V53.08a.87.87,0,0,1,.88-.87H69a.89.89,0,0,0,.89-.89V43.07a.89.89,0,0,0-.89-.9H65.28V54.7H65a1.59,1.59,0,0,1-1.59-1.59v-12a4.71,4.71,0,1,1,3.9-.8H69a2.79,2.79,0,0,1,2.79,2.8v8.25A2.8,2.8,0,0,1,69.94,54Zm-3.3-.63H69.3V53.47l.24-.06a2.16,2.16,0,0,0,1.61-2.09V43.07A2.17,2.17,0,0,0,69,40.9H64.36l1.58-.61a4.05,4.05,0,1,0-2.19.21l.26,0V53.11a1,1,0,0,0,.63.9V41.54H69a1.52,1.52,0,0,1,1.52,1.53v8.25A1.53,1.53,0,0,1,69,52.85h-.08a.23.23,0,0,0-.24.23V64H67.54A1,1,0,0,0,66.64,64.6ZM64.47,39.93a3.42,3.42,0,1,1,3.42-3.42A3.42,3.42,0,0,1,64.47,39.93Zm0-6.2a2.79,2.79,0,1,0,2.79,2.78A2.79,2.79,0,0,0,64.47,33.73Z"/><path class="cls-16" d="M59.69,40.46H57.26a4.37,4.37,0,1,0-3.72,0H51a3,3,0,0,0-3,2.93v8.29a1.28,1.28,0,0,0,1.29-1.27v-7A1.68,1.68,0,0,1,51,41.74h8.65a1.68,1.68,0,0,1,1.7,1.65v7a1.28,1.28,0,0,0,1.3,1.27V43.39A3,3,0,0,0,59.69,40.46Zm-7.39-4a3.11,3.11,0,1,1,3.1,3.11A3.1,3.1,0,0,1,52.3,36.51Z"/><path class="cls-16" d="M63,52h-.31a1.61,1.61,0,0,1-1.62-1.59v-7a1.36,1.36,0,0,0-1.38-1.34H51a1.36,1.36,0,0,0-1.38,1.34v7A1.6,1.6,0,0,1,48.05,52h-.32V43.39A3.27,3.27,0,0,1,51,40.15h1.41a4.69,4.69,0,1,1,5.91,0h1.33A3.27,3.27,0,0,1,63,43.39ZM51,41.42h8.65a2,2,0,0,1,2,2v7a1,1,0,0,0,.66.91V43.39a2.65,2.65,0,0,0-2.68-2.61H55.85l1.28-.6a4.06,4.06,0,1,0-3.45,0l1.28.6H51a2.65,2.65,0,0,0-2.68,2.61v7.93a1,1,0,0,0,.67-.91v-7A2,2,0,0,1,51,41.42Zm4.36-1.49a3.42,3.42,0,1,1,3.42-3.42A3.42,3.42,0,0,1,55.4,39.93Zm0-6.2a2.79,2.79,0,1,0,2.79,2.78A2.79,2.79,0,0,0,55.4,33.73Z"/></svg>